<?xml version="1.0" standalone="no"?>
<!DOCTYPE svg PUBLIC "-//W3C//DTD SVG 20010904//EN"
 "http://www.w3.org/TR/2001/REC-SVG-20010904/DTD/svg10.dtd">
<svg version="1.0" xmlns="http://www.w3.org/2000/svg"
 width="512.000000pt" height="512.000000pt" viewBox="0 0 512.000000 512.000000"
 preserveAspectRatio="xMidYMid meet">

<g transform="translate(0.000000,512.000000) scale(0.100000,-0.100000)"
fill="#000000" stroke="none">
<path d="M2356 5050 c-906 -76 -1701 -639 -2076 -1470 -93 -207 -170 -487
-201 -730 -16 -122 -16 -458 0 -580 72 -569 320 -1079 716 -1475 396 -396 906
-644 1475 -716 122 -16 458 -16 580 0 569 72 1079 320 1475 716 396 396 644
906 716 1475 16 122 16 458 0 580 -94 739 -488 1382 -1096 1787 -318 213 -703
355 -1082 402 -124 15 -384 21 -507 11z m4 -672 c0 -7 -9 -62 -19 -123 -10
-60 -16 -116 -13 -123 4 -11 19 -13 67 -7 l62 6 -4 -25 c-4 -21 -13 -27 -60
-36 -66 -14 -98 -8 -118 24 -15 22 -15 32 -1 113 21 119 22 116 -16 108 -18
-4 -35 -9 -37 -11 -1 -1 -9 -34 -16 -72 -26 -137 -82 -222 -145 -222 -50 0
-82 55 -64 109 7 18 18 27 37 29 26 3 27 3 21 -41 -8 -57 10 -71 42 -33 25 28
48 96 59 170 7 46 7 46 -22 46 -27 0 -30 3 -25 25 2 15 13 27 26 30 45 11 202
43 214 44 6 1 12 -5 12 -11z m373 1 c26 -12 47 -47 47 -79 0 -11 -13 -34 -29
-52 -28 -32 -32 -33 -128 -38 -97 -5 -98 -5 -95 -30 1 -13 6 -28 11 -33 16
-16 85 -27 171 -27 l85 0 75 106 c41 58 80 110 87 115 6 5 23 7 37 3 l26 -6
-36 -50 c-19 -28 -34 -51 -32 -53 2 -2 37 -13 78 -24 l75 -21 20 27 c50 69 60
76 88 67 l26 -9 -75 -100 c-41 -54 -73 -106 -72 -115 2 -8 25 -22 53 -31 54
-19 63 -30 41 -49 -22 -17 -113 6 -144 37 -27 27 -25 57 9 105 16 21 17 29 7
33 -37 12 -123 35 -132 35 -6 0 -32 -28 -57 -63 l-45 -62 -110 2 c-156 4 -188
10 -217 39 -32 32 -41 71 -28 122 13 47 77 123 123 145 38 19 106 22 141 6z
m-1583 -79 c0 -9 -12 -27 -26 -41 -52 -48 -54 -40 90 -319 178 -341 188 -366
194 -468 6 -104 -9 -159 -60 -216 -115 -132 -303 -76 -364 107 -26 77 -16 213
22 302 30 69 93 175 105 175 3 0 11 -12 18 -26 10 -23 8 -32 -19 -73 -62 -98
-95 -251 -71 -337 44 -164 214 -207 284 -72 55 108 37 179 -132 508 -75 146
-142 275 -149 285 -11 19 -15 16 -66 -39 l-54 -60 -15 30 -15 29 116 133 c105
121 117 132 129 116 7 -10 13 -25 13 -34z m761 -78 c99 -111 29 -303 -116
-320 -52 -5 -86 12 -110 59 l-16 30 -37 -22 c-20 -12 -41 -25 -45 -29 -5 -4
-4 -42 0 -85 9 -74 9 -77 -14 -92 -13 -9 -25 -14 -27 -12 -2 2 -11 63 -20 134
-9 72 -19 146 -22 166 -4 31 -2 37 21 47 14 7 27 12 29 12 2 0 6 -25 9 -56 3
-31 8 -58 10 -60 2 -2 22 6 44 18 37 20 41 27 46 71 8 62 43 125 87 155 51 34
123 27 161 -16z m1614 -82 c31 -19 55 -57 55 -85 0 -24 -50 -73 -81 -80 -24
-5 -49 2 -115 34 -82 39 -84 40 -95 20 -24 -46 12 -80 174 -161 l28 -14 -21
-19 c-22 -20 -22 -20 -117 30 -107 56 -133 82 -133 132 0 125 190 214 305 143z
m570 -11 c28 -25 35 -38 35 -67 0 -73 -113 -141 -239 -144 l-50 -1 15 -29 c22
-42 9 -82 -39 -123 -95 -82 -224 -84 -290 -6 -42 51 -37 95 16 145 36 34 230
150 392 235 60 32 116 28 160 -10z m-1275 -348 c120 -27 201 -56 310 -112 338
-173 573 -485 656 -869 25 -118 25 -362 0 -480 -109 -507 -479 -877 -986 -986
-118 -25 -362 -25 -480 0 -507 109 -877 479 -986 986 -25 118 -25 362 0 480
117 546 540 933 1096 1004 75 9 307 -4 390 -23z m1206 -67 c49 -23 85 -67 91
-112 4 -31 9 -39 23 -35 10 3 23 -5 33 -21 l17 -25 -48 -15 c-26 -8 -80 -24
-120 -36 -40 -12 -76 -28 -79 -36 -3 -8 9 -35 27 -60 35 -49 35 -48 4 -58 -17
-5 -28 1 -51 31 -42 54 -53 77 -46 101 4 17 1 22 -15 22 -46 0 -112 81 -112
138 0 96 163 158 276 106z m-3656 -550 c-66 -344 -74 -747 -21 -1110 11 -71
18 -130 17 -132 -5 -4 -55 172 -70 248 -54 268 -48 593 14 859 23 95 70 244
76 238 2 -2 -5 -48 -16 -103z m4466 -129 c72 -296 72 -642 -2 -942 -25 -102
-52 -187 -53 -168 -1 6 8 71 20 145 15 99 22 203 26 392 6 284 -4 438 -43 661
-13 76 -24 141 -23 145 1 16 52 -140 75 -233z m-4185 44 c-44 -200 -57 -645
-26 -873 8 -65 14 -121 11 -123 -6 -6 -41 110 -63 212 -14 62 -18 126 -18 280
0 219 10 289 67 463 32 97 46 116 29 41z m3894 -104 c74 -256 72 -560 -6 -823
-12 -40 -24 -71 -26 -68 -2 2 3 68 13 147 20 179 15 577 -10 734 -9 55 -18
114 -21 130 l-5 30 15 -33 c8 -18 26 -70 40 -117z m-3632 -90 c-15 -115 -21
-409 -11 -570 l7 -110 -25 73 c-13 41 -29 106 -35 145 -16 104 -6 324 19 417
21 77 51 155 56 149 2 -2 -3 -49 -11 -104z m3369 -53 c17 -63 21 -107 22 -242
1 -173 -13 -263 -56 -355 -10 -22 -16 -29 -12 -15 3 14 8 129 11 255 5 203 -4
393 -22 495 -9 48 36 -60 57 -138z m-3094 -87 c-5 -60 -8 -179 -5 -264 3 -133
2 -150 -10 -128 -42 81 -59 264 -34 372 12 51 49 141 54 134 2 -2 0 -53 -5
-114z m2802 40 c31 -81 39 -245 17 -331 -39 -151 -42 -143 -43 92 0 121 -4
242 -8 269 -10 63 4 51 34 -30z m-3047 -879 c3 -8 -16 -43 -44 -80 -27 -36
-49 -68 -49 -71 0 -3 38 -5 84 -5 69 0 85 -3 90 -17 8 -19 9 -18 -102 -79 -45
-25 -87 -42 -92 -39 -20 12 -9 32 28 49 20 9 48 26 62 36 l25 20 -68 0 c-85 0
-92 12 -43 79 20 27 36 51 36 54 0 3 -25 -5 -55 -19 -74 -32 -89 -32 -84 4 1
7 176 81 195 81 7 1 14 -5 17 -13z m3341 -62 c85 -41 94 -48 85 -65 -9 -18
-12 -18 -39 -4 -16 8 -33 15 -38 15 -22 0 -20 -34 3 -79 21 -42 22 -51 10 -67
-13 -18 -15 -16 -35 29 -18 41 -23 46 -40 37 -33 -18 -67 -11 -89 16 -12 15
-21 31 -21 37 0 17 52 127 60 127 5 0 51 -21 104 -46z m-91 -242 c60 -40 66
-47 53 -60 -13 -14 -19 -12 -53 10 -21 13 -50 33 -66 43 l-28 18 10 -24 c5
-13 20 -52 35 -86 30 -71 32 -91 12 -99 -17 -7 -186 104 -186 122 0 28 22 23
81 -16 33 -23 62 -40 64 -38 2 1 -13 42 -32 90 -30 73 -34 90 -23 103 14 17 3
23 133 -63z m-3168 -35 c-30 -39 -53 -72 -51 -74 2 -3 41 7 87 21 77 24 83 24
95 8 15 -21 22 -18 -169 -67 -105 -27 -151 -35 -159 -27 -16 16 -1 30 42 37
36 6 45 15 111 107 65 90 74 98 85 83 12 -16 6 -27 -41 -88z m206 -136 c42
-42 50 -78 23 -105 -8 -9 -26 -16 -39 -16 -18 0 -24 -6 -27 -27 -2 -17 -13
-33 -29 -42 -22 -12 -29 -12 -54 0 -33 16 -77 75 -73 98 4 20 28 26 28 7 0
-26 55 -80 74 -73 28 11 30 37 6 69 -30 41 -12 59 23 24 28 -28 35 -30 56 -17
21 14 5 57 -28 77 -17 10 -27 23 -24 31 8 21 23 15 64 -26z m2758 -31 c41 -36
74 -58 82 -55 22 8 76 -52 61 -67 -9 -9 -16 -7 -32 7 -20 18 -21 17 -74 -41
l-54 -59 20 -22 c20 -21 18 -43 -5 -43 -18 0 -66 51 -61 65 8 19 -17 62 -66
117 l-41 48 47 55 c26 30 50 55 52 55 2 0 34 -27 71 -60z m-2643 -145 l-26
-33 25 -16 c37 -24 59 -73 46 -102 -15 -33 -54 -56 -83 -49 -14 4 -46 24 -71
44 l-46 38 72 86 c61 72 74 84 90 75 17 -9 17 -11 -7 -43z m2490 -112 c42
-109 58 -162 51 -170 -16 -21 -23 -15 -42 32 -16 42 -24 49 -121 103 -57 31
-104 60 -104 64 0 4 9 10 20 13 14 4 44 -8 96 -40 85 -51 85 -53 33 63 -23 50
-27 68 -18 78 6 8 14 14 18 14 3 0 34 -71 67 -157z m-2317 -20 c-118 -140
-132 -154 -147 -139 -13 12 -6 25 58 101 66 77 75 85 88 71 14 -14 14 -17 1
-33z m2079 -7 c-16 -12 -28 -25 -28 -29 0 -4 22 -41 49 -81 37 -55 47 -76 38
-85 -6 -6 -15 -11 -19 -11 -4 0 -31 36 -61 79 l-52 79 -28 -20 c-21 -15 -31
-18 -40 -9 -13 13 -11 16 78 75 48 32 72 42 80 35 7 -7 2 -17 -17 -33z m-1997
-72 c-12 -20 -20 -38 -18 -40 2 -2 30 5 61 16 47 16 62 17 80 8 19 -11 15 -14
-47 -33 l-68 -20 5 -37 c3 -21 9 -57 12 -79 7 -39 6 -41 -14 -30 -15 8 -23 28
-32 83 l-12 71 -19 -24 c-10 -13 -21 -32 -25 -41 -6 -21 -32 -24 -40 -4 -3 8
20 55 52 106 50 82 58 90 72 77 13 -14 13 -19 -7 -53z m1829 -27 c0 -7 -16
-19 -35 -26 -47 -17 -60 -43 -46 -92 20 -67 75 -87 125 -48 20 16 30 19 38 11
17 -17 -17 -50 -63 -64 -123 -36 -204 146 -95 213 36 22 76 25 76 6z m-1565
-53 c38 -17 60 -61 50 -95 -4 -13 -20 -51 -36 -86 -21 -47 -32 -61 -44 -57 -8
3 -15 12 -15 20 0 10 -7 13 -24 8 -33 -8 -84 21 -92 51 -4 16 0 35 10 50 19
29 58 33 111 11 39 -16 45 -13 45 24 0 33 -16 48 -58 56 -39 8 -43 34 -6 34
14 0 41 -7 59 -16z m1295 -164 c25 -82 28 -105 18 -111 -22 -14 -27 -10 -39
31 -7 22 -16 40 -20 40 -15 0 -37 -30 -49 -65 -11 -34 -45 -63 -58 -51 -3 4 4
26 15 49 l21 43 -29 11 c-37 14 -54 55 -37 91 10 21 29 32 78 49 36 12 66 20
67 19 2 -1 17 -49 33 -106z m-1044 74 c55 -14 64 -19 59 -35 -3 -11 -7 -27 -9
-36 -24 -97 -49 -163 -61 -163 -25 0 -25 15 0 105 14 49 24 90 22 91 -1 1 -16
5 -34 8 -31 7 -32 6 -59 -54 -27 -60 -77 -115 -95 -104 -15 9 -10 33 10 43 10
6 33 44 52 86 18 41 37 75 41 75 5 0 38 -7 74 -16z m164 -73 c0 -37 2 -39 38
-44 56 -10 82 -32 82 -73 0 -53 -28 -74 -97 -73 -93 1 -91 -3 -75 122 13 93
17 107 33 107 15 0 19 -7 19 -39z m592 28 c27 -15 45 -61 53 -141 7 -65 6 -68
-14 -68 -11 0 -21 5 -21 12 0 6 -7 5 -18 -5 -52 -47 -122 -25 -122 38 0 40 12
50 73 65 48 13 60 33 35 58 -15 15 -62 16 -88 2 -13 -7 -19 -6 -23 4 -14 35
78 60 125 35z m-354 -62 l3 -47 55 0 54 0 0 50 c0 43 3 50 20 50 19 0 20 -7
20 -115 0 -108 -1 -115 -20 -115 -17 0 -20 7 -20 50 l0 50 -55 0 -55 0 0 -50
c0 -42 -3 -50 -19 -50 -17 0 -19 10 -23 108 -3 59 -3 111 0 115 2 4 11 7 20 5
13 -2 18 -16 20 -51z"/>
<path d="M2590 4301 l-35 -31 75 3 c73 2 75 3 75 27 0 22 -5 25 -40 28 -33 2
-47 -3 -75 -27z"/>
<path d="M1760 4170 c-44 -47 -53 -124 -20 -177 51 -84 170 3 157 114 -10 88
-82 122 -137 63z"/>
<path d="M3378 4104 c-30 -9 -20 -22 33 -50 33 -16 60 -23 75 -20 27 7 32 37
9 56 -16 13 -89 22 -117 14z"/>
<path d="M3893 4054 c-59 -31 -116 -62 -126 -69 -19 -13 -19 -14 7 -21 15 -4
56 -4 91 0 162 16 254 77 197 129 -29 27 -55 21 -169 -39z"/>
<path d="M3678 3916 c-61 -16 -118 -60 -118 -90 0 -59 96 -80 177 -38 122 63
76 164 -59 128z"/>
<path d="M2013 3236 c-204 -50 -342 -220 -343 -423 l0 -53 159 0 159 0 11 45
c26 104 125 155 201 103 47 -32 67 -85 51 -137 -16 -56 -73 -114 -342 -352
l-240 -212 3 -141 3 -141 455 0 455 0 3 101 3 102 61 -65 c70 -73 185 -136
277 -153 228 -42 467 71 563 268 32 65 33 70 33 197 0 150 -17 208 -86 295
-107 135 -283 191 -458 146 l-53 -14 6 47 c4 25 9 58 12 74 l6 27 234 0 234 0
0 140 0 140 -367 -2 -368 -3 -56 -365 c-31 -201 -55 -367 -53 -369 3 -3 63
-19 134 -36 l130 -32 26 35 c30 38 94 71 139 72 162 1 237 -160 126 -271 -68
-68 -163 -72 -242 -9 l-35 28 -285 4 -284 3 -3 -37 -3 -38 -70 0 c-38 0 -69 2
-69 4 0 2 58 54 128 114 229 197 288 275 312 414 54 308 -248 571 -567 494z"/>
<path d="M3874 3666 c-35 -15 -64 -51 -64 -78 0 -27 42 -66 80 -76 39 -9 123
10 153 36 22 19 22 66 0 88 -42 41 -113 54 -169 30z"/>
<path d="M4170 1805 c-13 -40 -2 -65 31 -65 19 0 49 35 49 57 0 10 -48 43 -64
43 -2 0 -10 -16 -16 -35z"/>
<path d="M3891 1384 l-21 -26 23 -30 c28 -38 56 -80 61 -93 3 -10 76 53 76 65
0 4 -27 30 -59 59 l-59 51 -21 -26z"/>
<path d="M1275 1170 c-28 -29 -28 -30 -10 -50 24 -26 53 -34 70 -20 22 18 18
54 -8 78 l-23 22 -29 -30z"/>
<path d="M1752 838 c-18 -18 -15 -36 7 -48 32 -17 69 -12 81 11 14 24 15 23
-29 38 -42 14 -44 14 -59 -1z"/>
<path d="M3042 844 c-34 -24 -26 -58 15 -62 49 -5 61 7 51 46 -10 36 -30 41
-66 16z"/>
<path d="M2267 693 c-4 -20 -4 -40 -1 -45 8 -12 68 -10 82 4 29 29 -5 78 -54
78 -17 0 -23 -8 -27 -37z"/>
<path d="M2818 698 c-20 -7 -28 -17 -28 -33 0 -50 82 -34 88 18 4 30 -10 34
-60 15z"/>
</g>
</svg>
